<svg xmlns="http://www.w3.org/2000/svg" viewBox="0 0 1200 800" width="1200" height="800">
  <defs>
    <linearGradient id="bg2" x1="0%" y1="0%" x2="100%" y2="100%">
      <stop offset="0%" style="stop-color:#0D0D14"/>
      <stop offset="100%" style="stop-color:#12101E"/>
    </linearGradient>
    <linearGradient id="card1" x1="0%" y1="0%" x2="100%" y2="100%">
      <stop offset="0%" style="stop-color:#5C3FFF"/>
      <stop offset="100%" style="stop-color:#9B59FF"/>
    </linearGradient>
    <linearGradient id="card2" x1="0%" y1="0%" x2="100%" y2="100%">
      <stop offset="0%" style="stop-color:#1a1a2e"/>
      <stop offset="100%" style="stop-color:#22203a"/>
    </linearGradient>
    <clipPath id="ph1">
      <rect x="60" y="60" width="220" height="450" rx="28"/>
    </clipPath>
    <clipPath id="ph2">
      <rect x="320" y="60" width="220" height="450" rx="28"/>
    </clipPath>
    <clipPath id="ph3">
      <rect x="580" y="60" width="220" height="450" rx="28"/>
    </clipPath>
    <filter id="glow2">
      <feGaussianBlur stdDeviation="6" result="coloredBlur"/>
      <feMerge><feMergeNode in="coloredBlur"/><feMergeNode in="SourceGraphic"/></feMerge>
    </filter>
  </defs>

  <rect width="1200" height="800" fill="url(#bg2)"/>

  <!-- Section header -->
  <text x="60" y="38" font-family="sans-serif" font-size="10" fill="#5C3FFF" letter-spacing="4">SCREENS / FLOW</text>
  <line x1="60" y1="48" x2="840" y2="48" stroke="#1a1a2e" stroke-width="1"/>

  <!-- ═══ SCREEN 1: HOME DASHBOARD ═══ -->
  <rect x="58" y="58" width="224" height="454" rx="30" fill="#1e1c2e"/>
  <rect x="60" y="60" width="220" height="450" rx="28" fill="#0D0D14"/>
  <g clip-path="url(#ph1)">
    <!-- Topbar -->
    <text x="78" y="92" font-family="sans-serif" font-size="8" fill="#F5F0E8" opacity="0.4">9:41</text>
    <circle cx="253" cy="86" r="12" fill="#1a1a2e"/>
    <text x="247" y="91" font-family="sans-serif" font-size="10" fill="#F5F0E8" opacity="0.5">IF</text>

    <!-- Greeting -->
    <text x="78" y="115" font-family="sans-serif" font-size="9" fill="#F5F0E8" opacity="0.4">Good morning,</text>
    <text x="78" y="131" font-family="serif" font-weight="bold" font-size="15" fill="#F5F0E8">Isaac</text>

    <!-- Balance card -->
    <rect x="68" y="142" width="204" height="100" rx="14" fill="url(#card1)"/>
    <text x="82" y="162" font-family="sans-serif" font-size="8" fill="rgba(255,255,255,0.65)" letter-spacing="1">PORTFOLIO VALUE</text>
    <text x="82" y="192" font-family="serif" font-weight="bold" font-size="24" fill="#fff">$45,230</text>
    <text x="82" y="210" font-family="sans-serif" font-size="8" fill="rgba(255,255,255,0.6)">↑ 4.2%  today</text>
    <polyline points="160,225 175,218 190,221 205,210 220,213 235,203 250,207 262,198 272,201" fill="none" stroke="rgba(255,255,255,0.35)" stroke-width="1.2" stroke-linecap="round"/>

    <!-- Quick actions -->
    <text x="78" y="262" font-family="sans-serif" font-size="7" fill="#F5F0E8" opacity="0.3" letter-spacing="2">QUICK ACTIONS</text>
    <rect x="68" y="270" width="44" height="44" rx="12" fill="#1a1a2e"/>
    <text x="82" y="297" font-family="sans-serif" font-size="16" fill="#5C3FFF">↑</text>
    <text x="73" y="322" font-family="sans-serif" font-size="7" fill="#F5F0E8" opacity="0.4">Send</text>

    <rect x="120" y="270" width="44" height="44" rx="12" fill="#1a1a2e"/>
    <text x="132" y="297" font-family="sans-serif" font-size="16" fill="#5C3FFF">↓</text>
    <text x="122" y="322" font-family="sans-serif" font-size="7" fill="#F5F0E8" opacity="0.4">Receive</text>

    <rect x="172" y="270" width="44" height="44" rx="12" fill="#1a1a2e"/>
    <text x="184" y="297" font-family="sans-serif" font-size="14" fill="#5C3FFF">⇄</text>
    <text x="175" y="322" font-family="sans-serif" font-size="7" fill="#F5F0E8" opacity="0.4">Swap</text>

    <rect x="224" y="270" width="44" height="44" rx="12" fill="#1a1a2e"/>
    <text x="236" y="297" font-family="sans-serif" font-size="14" fill="#5C3FFF">+</text>
    <text x="226" y="322" font-family="sans-serif" font-size="7" fill="#F5F0E8" opacity="0.4">Buy</text>

    <!-- Assets -->
    <text x="78" y="346" font-family="sans-serif" font-size="7" fill="#F5F0E8" opacity="0.3" letter-spacing="2">MY ASSETS</text>
    <!-- BTC row -->
    <circle cx="82" cy="370" r="9" fill="#F7931A"/>
    <text x="78" y="374" font-family="sans-serif" font-size="8" fill="#fff" font-weight="bold">₿</text>
    <text x="98" y="367" font-family="sans-serif" font-size="9" fill="#F5F0E8">Bitcoin</text>
    <text x="98" y="379" font-family="sans-serif" font-size="7" fill="#F5F0E8" opacity="0.3">0.812 BTC</text>
    <text x="260" y="367" font-family="sans-serif" font-size="9" fill="#F5F0E8" text-anchor="end">$23,410</text>
    <text x="260" y="379" font-family="sans-serif" font-size="7" fill="#4ade80" text-anchor="end">+2.3%</text>
    <!-- ETH row -->
    <circle cx="82" cy="400" r="9" fill="#627EEA"/>
    <text x="78" y="404" font-family="sans-serif" font-size="8" fill="#fff" font-weight="bold">Ξ</text>
    <text x="98" y="397" font-family="sans-serif" font-size="9" fill="#F5F0E8">Ethereum</text>
    <text x="98" y="409" font-family="sans-serif" font-size="7" fill="#F5F0E8" opacity="0.3">4.5 ETH</text>
    <text x="260" y="397" font-family="sans-serif" font-size="9" fill="#F5F0E8" text-anchor="end">$14,220</text>
    <text x="260" y="409" font-family="sans-serif" font-size="7" fill="#4ade80" text-anchor="end">+5.1%</text>
    <!-- SOL row -->
    <circle cx="82" cy="430" r="9" fill="#9945FF"/>
    <text x="78" y="434" font-family="sans-serif" font-size="8" fill="#fff" font-weight="bold">S</text>
    <text x="98" y="427" font-family="sans-serif" font-size="9" fill="#F5F0E8">Solana</text>
    <text x="98" y="439" font-family="sans-serif" font-size="7" fill="#F5F0E8" opacity="0.3">32.0 SOL</text>
    <text x="260" y="427" font-family="sans-serif" font-size="9" fill="#F5F0E8" text-anchor="end">$5,440</text>
    <text x="260" y="439" font-family="sans-serif" font-size="7" fill="#f87171" text-anchor="end">-1.2%</text>

    <!-- Bottom nav -->
    <rect x="60" y="480" width="220" height="30" fill="#0D0D14"/>
    <text x="96" y="499" font-family="sans-serif" font-size="12" fill="#5C3FFF" text-anchor="middle">⌂</text>
    <text x="140" y="499" font-family="sans-serif" font-size="11" fill="#F5F0E8" opacity="0.2" text-anchor="middle">◫</text>
    <text x="184" y="499" font-family="sans-serif" font-size="11" fill="#F5F0E8" opacity="0.2" text-anchor="middle">↕</text>
    <text x="228" y="499" font-family="sans-serif" font-size="11" fill="#F5F0E8" opacity="0.2" text-anchor="middle">⊙</text>
    <circle cx="96" cy="507" r="2" fill="#5C3FFF"/>
  </g>
  <text x="130" y="532" font-family="sans-serif" font-size="9" fill="#F5F0E8" opacity="0.3" text-anchor="middle" letter-spacing="2">DASHBOARD</text>

  <!-- ═══ SCREEN 2: SEND FLOW ═══ -->
  <rect x="318" y="58" width="224" height="454" rx="30" fill="#1e1c2e"/>
  <rect x="320" y="60" width="220" height="450" rx="28" fill="#0D0D14"/>
  <g clip-path="url(#ph2)">
    <!-- Header -->
    <text x="338" y="90" font-family="sans-serif" font-size="9" fill="#5C3FFF">←</text>
    <text x="420" y="90" font-family="serif" font-weight="bold" font-size="13" fill="#F5F0E8" text-anchor="middle">Send Crypto</text>

    <!-- Asset selector -->
    <rect x="328" y="108" width="204" height="48" rx="12" fill="#1a1a2e"/>
    <circle cx="350" cy="132" r="12" fill="#F7931A"/>
    <text x="346" y="136" font-family="sans-serif" font-size="9" fill="#fff">₿</text>
    <text x="368" y="128" font-family="sans-serif" font-size="10" fill="#F5F0E8">Bitcoin</text>
    <text x="368" y="142" font-family="sans-serif" font-size="8" fill="#F5F0E8" opacity="0.3">0.812 BTC available</text>
    <text x="522" y="136" font-family="sans-serif" font-size="12" fill="#F5F0E8" opacity="0.3" text-anchor="end">∨</text>

    <!-- Amount input -->
    <text x="338" y="178" font-family="sans-serif" font-size="8" fill="#F5F0E8" opacity="0.3" letter-spacing="2">AMOUNT</text>
    <text x="430" y="230" font-family="serif" font-weight="bold" font-size="38" fill="#F5F0E8" text-anchor="middle">0.05</text>
    <text x="430" y="250" font-family="sans-serif" font-size="10" fill="#F5F0E8" opacity="0.3" text-anchor="middle">≈ $1,420.50 USD</text>
    <rect x="380" y="260" width="100" height="22" rx="11" fill="#5C3FFF" opacity="0.15"/>
    <text x="430" y="275" font-family="sans-serif" font-size="9" fill="#5C3FFF" text-anchor="middle">MAX</text>

    <!-- To address -->
    <text x="338" y="302" font-family="sans-serif" font-size="8" fill="#F5F0E8" opacity="0.3" letter-spacing="2">TO ADDRESS</text>
    <rect x="328" y="312" width="204" height="38" rx="10" fill="#1a1a2e"/>
    <text x="345" y="335" font-family="sans-serif" font-size="8" fill="#F5F0E8" opacity="0.3">0x3Fa...d29C</text>
    <text x="516" y="335" font-family="sans-serif" font-size="12" fill="#5C3FFF" text-anchor="end">⊞</text>

    <!-- Network fee -->
    <rect x="328" y="362" width="204" height="50" rx="10" fill="#1a1a2e"/>
    <text x="345" y="382" font-family="sans-serif" font-size="8" fill="#F5F0E8" opacity="0.3">Network Fee</text>
    <text x="516" y="382" font-family="sans-serif" font-size="9" fill="#F5F0E8" text-anchor="end">~$2.40</text>
    <text x="345" y="400" font-family="sans-serif" font-size="8" fill="#F5F0E8" opacity="0.3">Est. Time</text>
    <text x="516" y="400" font-family="sans-serif" font-size="9" fill="#4ade80" text-anchor="end">~30 sec</text>

    <!-- Send button -->
    <rect x="328" y="428" width="204" height="44" rx="22" fill="url(#card1)"/>
    <text x="430" y="455" font-family="sans-serif" font-weight="600" font-size="13" fill="#fff" text-anchor="middle">Confirm Send</text>

    <!-- Bottom nav -->
    <rect x="320" y="480" width="220" height="30" fill="#0D0D14"/>
    <text x="356" y="499" font-family="sans-serif" font-size="11" fill="#F5F0E8" opacity="0.2" text-anchor="middle">⌂</text>
    <text x="400" y="499" font-family="sans-serif" font-size="11" fill="#5C3FFF" text-anchor="middle">◫</text>
    <text x="444" y="499" font-family="sans-serif" font-size="11" fill="#F5F0E8" opacity="0.2" text-anchor="middle">↕</text>
    <text x="488" y="499" font-family="sans-serif" font-size="11" fill="#F5F0E8" opacity="0.2" text-anchor="middle">⊙</text>
    <circle cx="400" cy="507" r="2" fill="#5C3FFF"/>
  </g>
  <text x="430" y="532" font-family="sans-serif" font-size="9" fill="#F5F0E8" opacity="0.3" text-anchor="middle" letter-spacing="2">SEND FLOW</text>

  <!-- ═══ SCREEN 3: NFT / PORTFOLIO ═══ -->
  <rect x="578" y="58" width="224" height="454" rx="30" fill="#1e1c2e"/>
  <rect x="580" y="60" width="220" height="450" rx="28" fill="#0D0D14"/>
  <g clip-path="url(#ph3)">
    <!-- Header -->
    <text x="598" y="90" font-family="sans-serif" font-size="9" fill="#5C3FFF">←</text>
    <text x="690" y="90" font-family="serif" font-weight="bold" font-size="13" fill="#F5F0E8" text-anchor="middle">My NFTs</text>

    <!-- Tabs -->
    <rect x="588" y="102" width="70" height="24" rx="12" fill="#5C3FFF"/>
    <text x="623" y="118" font-family="sans-serif" font-size="9" fill="#fff" text-anchor="middle">Collected</text>
    <text x="688" y="118" font-family="sans-serif" font-size="9" fill="#F5F0E8" opacity="0.3" text-anchor="middle">Created</text>
    <text x="748" y="118" font-family="sans-serif" font-size="9" fill="#F5F0E8" opacity="0.3" text-anchor="middle">Liked</text>

    <!-- NFT Grid -->
    <!-- NFT 1 -->
    <rect x="588" y="136" width="96" height="96" rx="10" fill="#1e1535"/>
    <rect x="588" y="136" width="96" height="96" rx="10" fill="url(#card1)" opacity="0.6"/>
    <text x="636" y="190" font-family="sans-serif" font-size="28" fill="rgba(255,255,255,0.5)" text-anchor="middle">◈</text>
    <text x="598" y="224" font-family="sans-serif" font-size="7" fill="#F5F0E8" opacity="0.5">Neon Cube #42</text>
    <text x="598" y="235" font-family="sans-serif" font-size="7" fill="#4ade80">Ξ 0.85</text>

    <!-- NFT 2 -->
    <rect x="692" y="136" width="96" height="96" rx="10" fill="#1a2a1a"/>
    <rect x="692" y="136" width="96" height="96" rx="10" fill="#22c55e" opacity="0.2"/>
    <text x="740" y="190" font-family="sans-serif" font-size="28" fill="rgba(255,255,255,0.5)" text-anchor="middle">⬡</text>
    <text x="702" y="224" font-family="sans-serif" font-size="7" fill="#F5F0E8" opacity="0.5">Pixel Grid #07</text>
    <text x="702" y="235" font-family="sans-serif" font-size="7" fill="#4ade80">Ξ 1.20</text>

    <!-- NFT 3 -->
    <rect x="588" y="248" width="96" height="96" rx="10" fill="#2a1a1a"/>
    <rect x="588" y="248" width="96" height="96" rx="10" fill="#f87171" opacity="0.2"/>
    <text x="636" y="302" font-family="sans-serif" font-size="28" fill="rgba(255,255,255,0.5)" text-anchor="middle">⬟</text>
    <text x="598" y="336" font-family="sans-serif" font-size="7" fill="#F5F0E8" opacity="0.5">Wave Form #18</text>
    <text x="598" y="347" font-family="sans-serif" font-size="7" fill="#4ade80">Ξ 0.42</text>

    <!-- NFT 4 -->
    <rect x="692" y="248" width="96" height="96" rx="10" fill="#1a1a2a"/>
    <rect x="692" y="248" width="96" height="96" rx="10" fill="#a855f7" opacity="0.25"/>
    <text x="740" y="302" font-family="sans-serif" font-size="28" fill="rgba(255,255,255,0.5)" text-anchor="middle">◉</text>
    <text x="702" y="336" font-family="sans-serif" font-size="7" fill="#F5F0E8" opacity="0.5">Dark Matter #3</text>
    <text x="702" y="347" font-family="sans-serif" font-size="7" fill="#f87171">Ξ 2.10</text>

    <!-- Portfolio value strip -->
    <rect x="580" y="364" width="220" height="48" fill="#1a1a2e"/>
    <text x="598" y="384" font-family="sans-serif" font-size="8" fill="#F5F0E8" opacity="0.3">NFT Portfolio Value</text>
    <text x="598" y="402" font-family="serif" font-weight="bold" font-size="16" fill="#F5F0E8">Ξ 4.57</text>
    <text x="780" y="402" font-family="sans-serif" font-size="9" fill="#4ade80" text-anchor="end">↑ 12.4%</text>

    <!-- Bottom action -->
    <rect x="588" y="420" width="204" height="38" rx="19" fill="url(#card1)"/>
    <text x="690" y="443" font-family="sans-serif" font-weight="600" font-size="11" fill="#fff" text-anchor="middle">Explore Marketplace →</text>

    <!-- Bottom nav -->
    <rect x="580" y="480" width="220" height="30" fill="#0D0D14"/>
    <text x="616" y="499" font-family="sans-serif" font-size="11" fill="#F5F0E8" opacity="0.2" text-anchor="middle">⌂</text>
    <text x="660" y="499" font-family="sans-serif" font-size="11" fill="#F5F0E8" opacity="0.2" text-anchor="middle">◫</text>
    <text x="704" y="499" font-family="sans-serif" font-size="11" fill="#F5F0E8" opacity="0.2" text-anchor="middle">↕</text>
    <text x="748" y="499" font-family="sans-serif" font-size="11" fill="#5C3FFF" text-anchor="middle">⊙</text>
    <circle cx="748" cy="507" r="2" fill="#5C3FFF"/>
  </g>
  <text x="690" y="532" font-family="sans-serif" font-size="9" fill="#F5F0E8" opacity="0.3" text-anchor="middle" letter-spacing="2">NFT VAULT</text>

  <!-- ═══ RIGHT: Process & Case Study ═══ -->
  <text x="860" y="38" font-family="sans-serif" font-size="10" fill="#5C3FFF" letter-spacing="4">DESIGN PROCESS</text>

  <!-- Step blocks -->
  <rect x="860" y="58" width="300" height="85" fill="#1a1a2e"/>
  <text x="876" y="82" font-family="serif" font-weight="bold" font-size="22" fill="#5C3FFF">01</text>
  <text x="920" y="82" font-family="sans-serif" font-weight="600" font-size="11" fill="#F5F0E8">Research</text>
  <text x="920" y="100" font-family="sans-serif" font-size="9" fill="#F5F0E8" opacity="0.4">Benchmarked 8 competitor</text>
  <text x="920" y="114" font-family="sans-serif" font-size="9" fill="#F5F0E8" opacity="0.4">apps. Identified pain points</text>
  <text x="920" y="128" font-family="sans-serif" font-size="9" fill="#F5F0E8" opacity="0.4">around data overload.</text>

  <rect x="860" y="151" width="300" height="85" fill="#1a1a2e"/>
  <text x="876" y="175" font-family="serif" font-weight="bold" font-size="22" fill="#5C3FFF">02</text>
  <text x="920" y="175" font-family="sans-serif" font-weight="600" font-size="11" fill="#F5F0E8">Wireframe</text>
  <text x="920" y="193" font-family="sans-serif" font-size="9" fill="#F5F0E8" opacity="0.4">Lo-fi sketches → mid-fi</text>
  <text x="920" y="207" font-family="sans-serif" font-size="9" fill="#F5F0E8" opacity="0.4">Figma frames. 3 iterations</text>
  <text x="920" y="221" font-family="sans-serif" font-size="9" fill="#F5F0E8" opacity="0.4">before landing the layout.</text>

  <rect x="860" y="244" width="300" height="85" fill="#1a1a2e"/>
  <text x="876" y="268" font-family="serif" font-weight="bold" font-size="22" fill="#5C3FFF">03</text>
  <text x="920" y="268" font-family="sans-serif" font-weight="600" font-size="11" fill="#F5F0E8">Visual Design</text>
  <text x="920" y="286" font-family="sans-serif" font-size="9" fill="#F5F0E8" opacity="0.4">Dark UI, purple accent system.</text>
  <text x="920" y="300" font-family="sans-serif" font-size="9" fill="#F5F0E8" opacity="0.4">Micro-animations for every</text>
  <text x="920" y="314" font-family="sans-serif" font-size="9" fill="#F5F0E8" opacity="0.4">state change.</text>

  <rect x="860" y="337" width="300" height="85" fill="#1a1a2e"/>
  <text x="876" y="361" font-family="serif" font-weight="bold" font-size="22" fill="#5C3FFF">04</text>
  <text x="920" y="361" font-family="sans-serif" font-weight="600" font-size="11" fill="#F5F0E8">Prototype</text>
  <text x="920" y="379" font-family="sans-serif" font-size="9" fill="#F5F0E8" opacity="0.4">Full interactive Figma flow.</text>
  <text x="920" y="393" font-family="sans-serif" font-size="9" fill="#F5F0E8" opacity="0.4">All 4 screens linked with</text>
  <text x="920" y="407" font-family="sans-serif" font-size="9" fill="#F5F0E8" opacity="0.4">realistic transitions.</text>

  <!-- Key insight -->
  <rect x="860" y="440" width="300" height="110" fill="#5C3FFF" opacity="0.1"/>
  <rect x="860" y="440" width="3" height="110" fill="#5C3FFF"/>
  <text x="876" y="464" font-family="sans-serif" font-size="9" fill="#5C3FFF" letter-spacing="2">KEY INSIGHT</text>
  <text x="876" y="488" font-family="sans-serif" font-size="12" fill="#F5F0E8">"Users don't want more</text>
  <text x="876" y="506" font-family="sans-serif" font-size="12" fill="#F5F0E8">data — they want the</text>
  <text x="876" y="524" font-family="sans-serif" font-size="12" fill="#F5F0E8">right data, instantly."</text>
  <text x="876" y="544" font-family="sans-serif" font-size="9" fill="#F5F0E8" opacity="0.3">— User Interview Finding</text>

  <!-- Tools used -->
  <text x="860" y="580" font-family="sans-serif" font-size="10" fill="#F5F0E8" opacity="0.3" letter-spacing="3">TOOLS USED</text>
  <rect x="860" y="592" width="70" height="26" fill="#1a1a2e"/>
  <text x="895" y="609" font-family="sans-serif" font-size="9" fill="#F5F0E8" opacity="0.6" text-anchor="middle">Figma</text>
  <rect x="938" y="592" width="70" height="26" fill="#1a1a2e"/>
  <text x="973" y="609" font-family="sans-serif" font-size="9" fill="#F5F0E8" opacity="0.6" text-anchor="middle">FigJam</text>
  <rect x="1016" y="592" width="80" height="26" fill="#1a1a2e"/>
  <text x="1056" y="609" font-family="sans-serif" font-size="9" fill="#F5F0E8" opacity="0.6" text-anchor="middle">Principle</text>
  <rect x="860" y="626" width="90" height="26" fill="#1a1a2e"/>
  <text x="905" y="643" font-family="sans-serif" font-size="9" fill="#F5F0E8" opacity="0.6" text-anchor="middle">Miro</text>
  <rect x="958" y="626" width="138" height="26" fill="#5C3FFF" opacity="0.2"/>
  <text x="1027" y="643" font-family="sans-serif" font-size="9" fill="#5C3FFF" text-anchor="middle">Concept Project</text>

  <!-- Bottom caption -->
  <line x1="60" y1="748" x2="1140" y2="748" stroke="#1a1a2e" stroke-width="1"/>
  <text x="60" y="770" font-family="sans-serif" font-size="10" fill="#F5F0E8" opacity="0.2" letter-spacing="2">WALLET APP UI — SCREENS OVERVIEW — ISAAC FIGUEROA — 2024</text>
  <text x="1140" y="770" font-family="sans-serif" font-size="10" fill="#5C3FFF" text-anchor="end">02 / 02</text>
</svg>
